<?xml version="1.0" standalone="no"?>
<!DOCTYPE svg PUBLIC "-//W3C//DTD SVG 20010904//EN"
 "http://www.w3.org/TR/2001/REC-SVG-20010904/DTD/svg10.dtd">
<svg version="1.0" xmlns="http://www.w3.org/2000/svg"
 width="512.000000pt" height="512.000000pt" viewBox="0 0 512.000000 512.000000"
 preserveAspectRatio="xMidYMid meet">
<metadata>
Created by potrace 1.14, written by Peter Selinger 2001-2017
</metadata>
<g transform="translate(0.000000,512.000000) scale(0.100000,-0.100000)"
fill="#000000" stroke="none">
<path d="M717 4433 c-1 -1 -27 -3 -57 -4 -246 -13 -491 -190 -600 -434 -61
-137 -60 -92 -60 -1440 1 -1200 1 -1232 21 -1305 11 -41 22 -83 24 -93 7 -30
64 -130 107 -187 93 -124 271 -239 413 -265 17 -3 46 -8 65 -11 53 -10 3785
-11 3860 -2 277 35 514 237 603 516 22 67 22 70 25 1322 3 1402 6 1327 -67
1485 -96 205 -271 346 -500 402 -60 15 -252 16 -1949 17 -1036 1 -1884 0
-1885 -1z"/>
</g>
</svg>
